<svg width="30" height="25" viewBox="0 0 30 25" fill="none" xmlns="http://www.w3.org/2000/svg">
<path d="M29 23.8429H27.9231C26.7807 23.8429 25.685 23.4715 24.8771 22.8103C24.0692 22.1491 23.6154 21.2523 23.6154 20.3174C23.6154 21.2523 23.1616 22.1491 22.3537 22.8103C21.5458 23.4715 20.4502 23.8429 19.3077 23.8429C18.1652 23.8429 17.0695 23.4715 16.2617 22.8103C15.4538 22.1491 15 21.2523 15 20.3174C15 21.2523 14.5462 22.1491 13.7383 22.8103C12.9305 23.4715 11.8348 23.8429 10.6923 23.8429C9.54984 23.8429 8.45416 23.4715 7.64632 22.8103C6.83845 22.1491 6.38462 21.2523 6.38462 20.3174C6.38462 21.2523 5.93078 22.1491 5.12291 22.8103C4.31507 23.4715 3.21939 23.8429 2.07692 23.8429H1" stroke="#3F8B54" stroke-linecap="round" stroke-linejoin="round"/>
<path d="M21.4609 16.7918C20.3516 15.688 18.9574 14.7991 17.3784 14.1887C15.7994 13.5784 14.0748 13.2618 12.3286 13.2618C10.5823 13.2618 8.85778 13.5784 7.2788 14.1887C5.69979 14.7991 4.30558 15.688 3.19629 16.7918" stroke="#3F8B54" stroke-linecap="round" stroke-linejoin="round"/>
<path d="M13.9229 13.3544C14.0521 9.37059 15.5382 5.73931 18.769 4.43488" stroke="#3F8B54" stroke-linecap="round" stroke-linejoin="round"/>
<path d="M12.3291 1.0857C13.7253 0.860696 15.1738 1.08263 16.3759 1.70576C17.5781 2.3289 18.4424 3.30573 18.7906 4.43493" stroke="#3F8B54" stroke-linecap="round" stroke-linejoin="round"/>
<path d="M26.6526 5.08723C25.6612 4.21118 24.3133 3.6615 22.8618 3.5414C21.4102 3.4213 19.955 3.73908 18.7695 4.43501" stroke="#3F8B54" stroke-linecap="round" stroke-linejoin="round"/>
<path d="M10.8652 6.32113C11.7092 5.30349 12.9602 4.55844 14.4029 4.2142C15.8456 3.86993 17.3899 3.948 18.7699 4.43498C20.154 4.71203 21.3525 5.41854 22.1121 6.4053C22.8717 7.39205 23.133 8.58179 22.8407 9.72324" stroke="#3F8B54" stroke-linecap="round" stroke-linejoin="round"/>
</svg>
