<svg width="17" height="16" viewBox="0 0 17 16" fill="none" xmlns="http://www.w3.org/2000/svg">
<path d="M8.50388 9.00319C9.05669 9.00319 9.50484 8.55505 9.50484 8.00224C9.50484 7.44942 9.05669 7.00128 8.50388 7.00128C7.95107 7.00128 7.50293 7.44942 7.50293 8.00224C7.50293 8.55505 7.95107 9.00319 8.50388 9.00319Z" stroke="black" stroke-width="1.00189" stroke-miterlimit="10"/>
<path d="M8.50388 14.0047C9.05669 14.0047 9.50484 13.5565 9.50484 13.0037C9.50484 12.4509 9.05669 12.0027 8.50388 12.0027C7.95107 12.0027 7.50293 12.4509 7.50293 13.0037C7.50293 13.5565 7.95107 14.0047 8.50388 14.0047Z" stroke="black" stroke-width="1.00189" stroke-miterlimit="10"/>
<path d="M8.50388 4.00233C9.05669 4.00233 9.50484 3.55419 9.50484 3.00138C9.50484 2.44857 9.05669 2.00043 8.50388 2.00043C7.95107 2.00043 7.50293 2.44857 7.50293 3.00138C7.50293 3.55419 7.95107 4.00233 8.50388 4.00233Z" stroke="black" stroke-width="1.00189" stroke-miterlimit="10"/>
</svg>
