<svg width="45" height="44" viewBox="0 0 45 44" fill="none" xmlns="http://www.w3.org/2000/svg">
<rect x="0.5" width="44" height="44" fill="#F4F4F4"/>
<path d="M31.3401 14.61C30.8294 14.099 30.2229 13.6936 29.5555 13.4171C28.888 13.1405 28.1726 12.9982 27.4501 12.9982C26.7276 12.9982 26.0122 13.1405 25.3448 13.4171C24.6773 13.6936 24.0709 14.099 23.5601 14.61L22.5001 15.67L21.4401 14.61C20.4084 13.5783 19.0092 12.9987 17.5501 12.9987C16.0911 12.9987 14.6918 13.5783 13.6601 14.61C12.6284 15.6417 12.0488 17.041 12.0488 18.5C12.0488 19.959 12.6284 21.3583 13.6601 22.39L14.7201 23.45L22.5001 31.23L30.2801 23.45L31.3401 22.39C31.8511 21.8792 32.2565 21.2728 32.533 20.6053C32.8096 19.9379 32.9519 19.2225 32.9519 18.5C32.9519 17.7775 32.8096 17.0621 32.533 16.3946C32.2565 15.7272 31.8511 15.1208 31.3401 14.61Z" stroke="#676767" stroke-width="1.5" stroke-linecap="round" stroke-linejoin="round"/>
</svg>
