<svg width="24" height="23" viewBox="0 0 24 23" fill="none" xmlns="http://www.w3.org/2000/svg">
<path d="M20.625 9.58334C20.625 16.2917 12 22.0417 12 22.0417C12 22.0417 3.375 16.2917 3.375 9.58334C3.375 7.29585 4.2837 5.10205 5.9012 3.48455C7.5187 1.86705 9.71251 0.958344 12 0.958344C14.2875 0.958344 16.4813 1.86705 18.0988 3.48455C19.7163 5.10205 20.625 7.29585 20.625 9.58334Z" stroke="#979797" stroke-width="1.5" stroke-linecap="round" stroke-linejoin="round"/>
<path d="M12 12.4583C13.5878 12.4583 14.875 11.1712 14.875 9.58334C14.875 7.99552 13.5878 6.70834 12 6.70834C10.4122 6.70834 9.125 7.99552 9.125 9.58334C9.125 11.1712 10.4122 12.4583 12 12.4583Z" stroke="#979797" stroke-width="1.5" stroke-linecap="round" stroke-linejoin="round"/>
</svg>
