<svg width="21" height="25" viewBox="0 0 21 25" fill="none" xmlns="http://www.w3.org/2000/svg">
<path d="M3.36721 14.3741H0.692383C0.692383 16.9753 1.72569 19.4699 3.56498 21.3093C5.40428 23.1485 7.89891 24.1818 10.5001 24.1818C13.1012 24.1818 15.5959 23.1485 17.4352 21.3093C19.2744 19.4699 20.3078 16.9753 20.3078 14.3741H17.6329" stroke="#0360EB" stroke-linecap="round" stroke-linejoin="round"/>
<path d="M10.5 6.34965C11.9773 6.34965 13.1748 5.1521 13.1748 3.67483C13.1748 2.19755 11.9773 1 10.5 1C9.02275 1 7.8252 2.19755 7.8252 3.67483C7.8252 5.1521 9.02275 6.34965 10.5 6.34965Z" stroke="#0360EB" stroke-linecap="round" stroke-linejoin="round"/>
<path d="M10.5 6.34961V24.1818" stroke="#0360EB" stroke-linecap="round" stroke-linejoin="round"/>
<path d="M7.8252 11.6993H13.1748" stroke="#0360EB" stroke-linecap="round" stroke-linejoin="round"/>
</svg>
