<svg width="59" height="59" viewBox="0 0 59 59" fill="none" xmlns="http://www.w3.org/2000/svg">
<rect width="59" height="59" rx="29.5" fill="#FDEBEC"/>
<path d="M24 28L28 19C28.7956 19 29.5587 19.3161 30.1213 19.8787C30.6839 20.4413 31 21.2044 31 22V26H36.66C36.9499 25.9967 37.2371 26.0565 37.5016 26.1752C37.7661 26.2939 38.0016 26.4687 38.1919 26.6875C38.3821 26.9063 38.5225 27.1638 38.6033 27.4423C38.6842 27.7207 38.7035 28.0134 38.66 28.3L37.28 37.3C37.2077 37.7769 36.9654 38.2116 36.5979 38.524C36.2304 38.8364 35.7623 39.0055 35.28 39H24M24 28V39M24 28H21C20.4696 28 19.9609 28.2107 19.5858 28.5858C19.2107 28.9609 19 29.4696 19 30V37C19 37.5304 19.2107 38.0391 19.5858 38.4142C19.9609 38.7893 20.4696 39 21 39H24" stroke="#E93740" stroke-width="2" stroke-linecap="round" stroke-linejoin="round"/>
</svg>
