<svg width="59" height="59" viewBox="0 0 59 59" fill="none" xmlns="http://www.w3.org/2000/svg">
<rect width="59" height="59" rx="29.5" fill="#FEF3EB"/>
<path d="M29.3262 30.2046C29.8785 30.2046 30.3262 29.7569 30.3262 29.2046C30.3262 28.6523 29.8785 28.2046 29.3262 28.2046C28.7739 28.2046 28.3262 28.6523 28.3262 29.2046C28.3262 29.7569 28.7739 30.2046 29.3262 30.2046Z" stroke="#F68235" stroke-width="2" stroke-linecap="round" stroke-linejoin="round"/>
<path d="M36.3262 30.2046C36.8785 30.2046 37.3262 29.7569 37.3262 29.2046C37.3262 28.6523 36.8785 28.2046 36.3262 28.2046C35.7739 28.2046 35.3262 28.6523 35.3262 29.2046C35.3262 29.7569 35.7739 30.2046 36.3262 30.2046Z" stroke="#F68235" stroke-width="2" stroke-linecap="round" stroke-linejoin="round"/>
<path d="M22.3262 30.2046C22.8785 30.2046 23.3262 29.7569 23.3262 29.2046C23.3262 28.6523 22.8785 28.2046 22.3262 28.2046C21.7739 28.2046 21.3262 28.6523 21.3262 29.2046C21.3262 29.7569 21.7739 30.2046 22.3262 30.2046Z" stroke="#F68235" stroke-width="2" stroke-linecap="round" stroke-linejoin="round"/>
</svg>
