<svg width="59" height="59" viewBox="0 0 59 59" fill="none" xmlns="http://www.w3.org/2000/svg">
<rect width="59" height="59" rx="29.5" fill="#EAF2F9"/>
<path d="M29 18V40" stroke="#2D7BC0" stroke-width="2" stroke-linecap="round" stroke-linejoin="round"/>
<path d="M34 22H26.5C25.5717 22 24.6815 22.3687 24.0251 23.0251C23.3687 23.6815 23 24.5717 23 25.5C23 26.4283 23.3687 27.3185 24.0251 27.9749C24.6815 28.6313 25.5717 29 26.5 29H31.5C32.4283 29 33.3185 29.3687 33.9749 30.0251C34.6313 30.6815 35 31.5717 35 32.5C35 33.4283 34.6313 34.3185 33.9749 34.9749C33.3185 35.6313 32.4283 36 31.5 36H23" stroke="#2D7BC0" stroke-width="2" stroke-linecap="round" stroke-linejoin="round"/>
</svg>
