<svg width="24" height="23" viewBox="0 0 24 23" fill="none" xmlns="http://www.w3.org/2000/svg">
<path d="M17.3917 6.46991C17.2156 8.84527 15.4149 10.783 13.438 10.783C11.4612 10.783 9.65733 8.84572 9.48435 6.46991C9.30464 3.99886 11.0568 2.1568 13.438 2.1568C15.8192 2.1568 17.5714 4.04379 17.3917 6.46991Z" stroke="black" stroke-width="1.00189" stroke-linecap="round" stroke-linejoin="round"/>
<path d="M13.438 13.6572C9.52979 13.6572 5.56319 15.8134 4.82917 19.8834C4.73932 20.3739 5.01829 20.8447 5.53219 20.8447H21.3442C21.8581 20.8447 22.1358 20.3739 22.0473 19.8834C21.3128 15.8134 17.3462 13.6572 13.438 13.6572Z" stroke="black" stroke-width="1.00189" stroke-miterlimit="10"/>
<path d="M4.4541 7.90814V12.9414" stroke="black" stroke-width="1.00189" stroke-linecap="round" stroke-linejoin="round"/>
<path d="M6.97275 10.4236H1.93945" stroke="black" stroke-width="1.00189" stroke-linecap="round" stroke-linejoin="round"/>
</svg>
