<svg width="23" height="27" viewBox="0 0 23 27" fill="none" xmlns="http://www.w3.org/2000/svg">
<path fill-rule="evenodd" clip-rule="evenodd" d="M11.9067 26.8792C13.9502 25.8243 23 20.6556 23 11.848C23 5.30451 17.8513 0 11.5 0C5.14873 0 0 5.30451 0 11.848C0 20.6556 9.04977 25.8243 11.0933 26.8792C11.3534 27.0134 11.6466 27.0134 11.9067 26.8792ZM11.4999 16.9257C14.2218 16.9257 16.4284 14.6523 16.4284 11.848C16.4284 9.04363 14.2218 6.77026 11.4999 6.77026C8.77789 6.77026 6.57129 9.04363 6.57129 11.848C6.57129 14.6523 8.77789 16.9257 11.4999 16.9257Z" fill="#C73434"/>
</svg>
