<svg width="24" height="23" viewBox="0 0 24 23" fill="none" xmlns="http://www.w3.org/2000/svg">
<path d="M19.1875 3.59305H4.8125C3.62164 3.59305 2.65625 4.55843 2.65625 5.7493V18.6868C2.65625 19.8777 3.62164 20.843 4.8125 20.843H19.1875C20.3784 20.843 21.3438 19.8777 21.3438 18.6868V5.7493C21.3438 4.55843 20.3784 3.59305 19.1875 3.59305Z" stroke="black" stroke-width="1.00189" stroke-linejoin="round"/>
<path d="M6.25 2.15631V3.60674" stroke="black" stroke-width="1.00189" stroke-linecap="round" stroke-linejoin="round"/>
<path d="M17.751 2.15631V3.60674" stroke="black" stroke-width="1.00189" stroke-linecap="round" stroke-linejoin="round"/>
<path d="M9.26349 10.0615H6.11664C5.79388 10.0615 5.53223 10.3232 5.53223 10.6459V13.7928C5.53223 14.1155 5.79388 14.3772 6.11664 14.3772H9.26349C9.58625 14.3772 9.8479 14.1155 9.8479 13.7928V10.6459C9.8479 10.3232 9.58625 10.0615 9.26349 10.0615Z" stroke="black" stroke-width="1.00189" stroke-linecap="round" stroke-linejoin="round"/>
<path d="M21.3438 7.18909H2.65625" stroke="black" stroke-width="1.00189" stroke-linecap="round" stroke-linejoin="round"/>
</svg>
