<svg width="27" height="33" viewBox="0 0 27 33" fill="none" xmlns="http://www.w3.org/2000/svg">
<path fill-rule="evenodd" clip-rule="evenodd" d="M10.3693 0.0254993C9.37405 0.73014 0 7.67128 0 19.1328C-2.38418e-07 20.8947 0.347032 22.6393 1.02128 24.2671C1.69553 25.8949 2.6838 27.3739 3.92965 28.6198C5.1755 29.8656 6.65455 30.8539 8.28233 31.5281C9.86321 32.183 11.5543 32.5292 13.2644 32.5486C9.10049 32.4674 5.75 29.0667 5.75 24.8834C5.75 24.6583 5.7597 24.4355 5.7787 24.2153C6.20206 19.2561 11.1907 15.0633 12.8695 13.7845C13.1966 13.5353 13.637 13.5353 13.9641 13.7845C15.643 15.0634 20.6323 19.257 21.0548 24.2168C21.0737 24.4365 21.0833 24.6588 21.0833 24.8834C21.0833 29.0667 17.7328 32.4674 13.5689 32.5486C15.279 32.5292 16.9701 32.183 18.551 31.5281C20.1788 30.8539 21.6578 29.8656 22.9037 28.6198C24.1495 27.3739 25.1378 25.8949 25.812 24.2671C26.3232 23.0332 26.6462 21.7321 26.7727 20.4072C26.7739 20.3946 26.7767 20.3823 26.7807 20.3704C26.8148 20.2696 26.8333 20.1617 26.8333 20.0494V19.2455L26.8332 19.1849L26.8333 19.1329L26.8332 19.1328L26.833 19.1326C26.781 10.7722 20.9643 6.31831 20.2061 5.77312C20.1566 5.73752 20.0929 5.73785 20.0434 5.77346C19.7149 6.00963 18.4429 6.97512 17.0999 8.66991C17.0295 8.75875 16.8887 8.74119 16.8412 8.63828C14.485 3.53766 11.1078 0.522155 10.5377 0.0358371C10.4875 -0.00701004 10.4232 -0.0126496 10.3693 0.0254993Z" fill="#E78787"/>
</svg>
